# xmcd
#
# Track frame offsets:
#	150
#	15880
#	37941
#	53521
#	67047
#	81468
#	94074
#	103387
#	115547
#	127178
#	140306
#	150511
#	166117
#	180276
#	192139
#	205868
#	215430
#	230240
#	242357
#	259495
#	274647
#	288494
#	299114
#	313697
#
# Disc length: 4340 seconds
#
# Revision: 0
# Processed by: cddbd v1.5.2PL0 Copyright (c) Steve Scherf et al.
# Submitted via: audiograbber 1.83.01
#
DISCID=5910f218
DTITLE=Сборник - Легенды Музыкального Олимпа
DYEAR=1900
DGENRE=
TTITLE0=Glen Miller - Moonlight Serenade
TTITLE1=Ella Fitzgerald and Louse Armstrong - Summertime
TTITLE2=T.Dorsey - Dark Eyes
TTITLE3=Bing Crosby - Don`t Fence Me In
TTITLE4=Frank Sinatra - A Lover Is Blue
TTITLE5=Mark Weber - Rio Rita
TTITLE6=Edit Piaf - Tant qu`ily aura des jours
TTITLE7=The Platters - Smoke Gets In Your Eyes
TTITLE8=Bing Crosby - Dream A Little Dream Of Me
TTITLE9=The Platters - I`m Sorry
TTITLE10=Pat Boone - Love Letters In The Sand
TTITLE11=Ray Noble - The Very Thought Of You
TTITLE12=Doris Day - Tea For Two
TTITLE13=Bing Crosby - Some Sunny Day
TTITLE14=Edit Piaf - La Vie En Rose
TTITLE15=Elvis Presley - Don`t Be Cruel
TTITLE16=Mark Weber - Zigeuner, You Have Stolen
TTITLE17=Pat Boone - April Love
TTITLE18=Bing Crosby, Ella Fitzgerald, Louse Armstrong - Memphis Blues
TTITLE19=Harry Belafonte - Island In The Sun
TTITLE20=Ray Noble - Spin A Little Web Of Dreams
TTITLE21=Bing Crosby - I Love Paris
TTITLE22=Edit Piaf - Padam, Padam
TTITLE23=Bing Crosby, Ella Fitzgerald, Louse Armstrong - I Get Ideas
EXTD=
EXTT0=
EXTT1=
EXTT2=
EXTT3=
EXTT4=
EXTT5=
EXTT6=
EXTT7=
EXTT8=
EXTT9=
EXTT10=
EXTT11=
EXTT12=
EXTT13=
EXTT14=
EXTT15=
EXTT16=
EXTT17=
EXTT18=
EXTT19=
EXTT20=
EXTT21=
EXTT22=
EXTT23=
PLAYORDER=
